<svg width="345" height="120" viewBox="0 0 345 120" fill="none" xmlns="http://www.w3.org/2000/svg">
<path d="M35.2733 0H112.875C112.875 19.4035 97.0822 35.1331 77.6013 35.1331H0C0 15.7296 15.7924 0 35.2733 0Z" fill="#FF6000"/>
<path d="M35.2733 0H112.875C112.875 19.4035 97.0822 35.1331 77.6013 35.1331H0C0 15.7296 15.7924 0 35.2733 0Z" fill="url(#paint0_linear)"/>
<path d="M0 42.2345H52.98C62.7334 42.2345 70.64 50.183 70.64 59.988C70.64 69.7929 62.7334 77.7414 52.98 77.7414H35.32C15.8133 77.7414 0 61.8444 0 42.2345Z" fill="#FF6000"/>
<path d="M0 42.2345H52.98C62.7334 42.2345 70.64 50.183 70.64 59.988C70.64 69.7929 62.7334 77.7414 52.98 77.7414H35.32C15.8133 77.7414 0 61.8444 0 42.2345Z" fill="url(#paint1_linear)"/>
<path d="M0 102.223C0 92.4175 7.86482 84.4691 17.5666 84.4691C27.2683 84.4691 35.1331 92.4175 35.1331 102.223C35.1331 112.027 27.2683 119.976 17.5666 119.976C7.86482 119.976 0 112.027 0 102.223Z" fill="#FF6000"/>
<path d="M0 102.223C0 92.4175 7.86482 84.4691 17.5666 84.4691C27.2683 84.4691 35.1331 92.4175 35.1331 102.223C35.1331 112.027 27.2683 119.976 17.5666 119.976C7.86482 119.976 0 112.027 0 102.223Z" fill="url(#paint2_radial)"/>
<path d="M88.68 85.22C79.14 85.22 71.4 92.54 71.4 102.5C71.4 112.4 79.02 119.78 88.68 119.78C98.34 119.78 105.96 112.46 105.96 102.5C105.96 92.54 98.22 85.22 88.68 85.22ZM88.68 94.94C92.64 94.94 95.64 97.94 95.64 102.5C95.64 107.12 92.64 110.06 88.68 110.06C84.78 110.06 81.72 107.12 81.72 102.5C81.72 97.94 84.72 94.94 88.68 94.94ZM141.341 119L129.941 102.26L140.861 86H128.621L123.881 94.34L118.721 86H106.601L117.461 101.96L106.001 119H118.241L123.521 109.94L129.221 119H141.341ZM162.035 92.54C157.895 91.64 155.975 91.4 155.975 89.42C155.975 87.62 157.355 85.76 161.915 85.76C166.715 85.76 168.095 87.68 168.695 90.14H179.015C178.295 82.88 173.795 76.22 161.915 76.22C153.935 76.22 145.715 80.66 145.715 89.9C145.715 98.6 152.735 101.12 159.575 102.56C166.595 104.06 169.115 104.24 169.115 106.7C169.115 108.92 167.255 110.24 163.115 110.24C157.775 110.24 155.915 108.62 154.955 105.14H144.635C145.475 112.28 150.335 119.78 163.175 119.78C169.895 119.78 179.375 116.54 179.375 106.28C179.375 97.7 173.795 95.06 162.035 92.54ZM209.52 108.68C206.7 109.58 204.54 110.3 202.74 110.3C200.16 110.3 198.54 108.8 198.54 105.62V95.6H209.64V86H198.54V77L188.34 79.22V86H182.7V95.6H188.34V106.22C188.34 116.06 194.58 119.78 200.94 119.78C205.08 119.78 209.4 118.22 211.26 116.9L209.52 108.68ZM237.315 86V103.52C237.315 108.08 235.275 110.06 231.375 110.06C227.355 110.06 226.275 107.96 226.275 104.36V86H216.075V106.64C216.075 114.68 220.575 119.78 227.835 119.78C231.855 119.78 234.915 118.22 237.315 115.22V119H247.515V86H237.315ZM277.763 74.5V89.72C275.663 87.02 272.543 85.22 268.343 85.22C260.123 85.22 253.523 92.24 253.523 102.5C253.523 112.7 260.003 119.78 268.403 119.78C272.603 119.78 275.603 118.04 277.763 115.46V119H287.963V72.8L277.763 74.5ZM270.803 110.06C266.903 110.06 263.843 107.12 263.843 102.5C263.843 97.94 266.843 94.94 270.803 94.94C274.763 94.94 277.763 97.94 277.763 102.5C277.763 107.12 274.763 110.06 270.803 110.06ZM299.053 70.4C295.573 70.4 292.873 72.86 292.873 76.22C292.873 79.64 295.573 82.1 299.053 82.1C302.653 82.1 305.233 79.64 305.233 76.22C305.233 72.86 302.653 70.4 299.053 70.4ZM293.953 119H304.153V86H293.953V119ZM326.805 85.22C317.265 85.22 309.525 92.54 309.525 102.5C309.525 112.4 317.145 119.78 326.805 119.78C336.465 119.78 344.085 112.46 344.085 102.5C344.085 92.54 336.345 85.22 326.805 85.22ZM326.805 94.94C330.765 94.94 333.765 97.94 333.765 102.5C333.765 107.12 330.765 110.06 326.805 110.06C322.905 110.06 319.845 107.12 319.845 102.5C319.845 97.94 322.845 94.94 326.805 94.94Z" fill="white"/>
<defs>
<linearGradient id="paint0_linear" x1="112.875" y1="35.1331" x2="0.0802252" y2="-0.255701" gradientUnits="userSpaceOnUse">
<stop offset="0.229755" stop-color="#F1532C"/>
<stop offset="1" stop-color="#FF6000" stop-opacity="0"/>
</linearGradient>
<linearGradient id="paint1_linear" x1="70.64" y1="77.7414" x2="-0.148636" y2="42.5334" gradientUnits="userSpaceOnUse">
<stop offset="0.390204" stop-color="#F1532C"/>
<stop offset="1" stop-color="#FF6000"/>
</linearGradient>
<radialGradient id="paint2_radial" cx="0" cy="0" r="1" gradientUnits="userSpaceOnUse" gradientTransform="translate(24.2419 110.034) rotate(-128.026) scale(27.9463 27.8765)">
<stop offset="0.318786" stop-color="#F1532C"/>
<stop offset="1" stop-color="#FF6000" stop-opacity="0"/>
</radialGradient>
</defs>
</svg>
