<svg width="15" height="15" viewBox="0 0 15 15" fill="none" xmlns="http://www.w3.org/2000/svg">
<path fill-rule="evenodd" clip-rule="evenodd" d="M1.69181 0.808058L0.807931 1.69194L3.34837 4.23238C3.11168 4.42853 2.87744 4.63919 2.64578 4.86322C2.12752 5.3644 1.65865 5.89947 1.2459 6.43476C0.996838 6.75778 0.820005 7.01187 0.723187 7.16325L0.507812 7.5L0.723187 7.83675C0.820005 7.98813 0.996838 8.24222 1.2459 8.56524C1.65865 9.10053 2.12752 9.6356 2.64578 10.1368C4.16491 11.6059 5.79499 12.5 7.49971 12.5C8.57532 12.5 9.62121 12.144 10.6283 11.5123L13.3079 14.1919L14.1918 13.3081L1.69181 0.808058ZM9.71521 10.5992L8.76973 9.65374C8.39748 9.87375 7.96325 10 7.49953 10C6.11882 10 4.99953 8.88071 4.99953 7.5C4.99953 7.03628 5.12579 6.60205 5.3458 6.22981L4.23713 5.12114C3.99497 5.31641 3.75398 5.53042 3.51473 5.76178C3.04336 6.21763 2.6137 6.70795 2.2358 7.19805C2.15418 7.3039 2.07876 7.40489 2.00981 7.5C2.07876 7.59511 2.15418 7.6961 2.2358 7.80195C2.6137 8.29205 3.04336 8.78237 3.51473 9.23822C4.82314 10.5035 6.18404 11.25 7.49971 11.25C8.22985 11.25 8.97391 11.0201 9.71521 10.5992ZM6.29195 7.17596C6.26428 7.2793 6.24953 7.38793 6.24953 7.5C6.24953 8.19036 6.80918 8.75 7.49953 8.75C7.61161 8.75 7.72023 8.73525 7.82358 8.70759L6.29195 7.17596ZM12.5609 9.93185L11.677 9.04795C12.0734 8.64728 12.4377 8.22453 12.7636 7.80195C12.8452 7.6961 12.9206 7.59511 12.9895 7.5C12.9206 7.40489 12.8452 7.3039 12.7636 7.19805C12.3857 6.70795 11.956 6.21763 11.4846 5.76178C10.1762 4.49648 8.81532 3.75 7.49965 3.75C7.17321 3.75 6.84399 3.79595 6.51348 3.88439L5.52474 2.89565C6.17002 2.63836 6.82906 2.5 7.49965 2.5C9.20437 2.5 10.8344 3.39414 12.3536 4.86322C12.8718 5.3644 13.3407 5.89947 13.7535 6.43476C14.0025 6.75777 14.1794 7.01187 14.2762 7.16325L14.4915 7.5L14.2762 7.83675C14.1794 7.98813 14.0025 8.24222 13.7535 8.56523C13.3965 9.0282 12.9975 9.49099 12.5609 9.93185Z" fill="black"/>
</svg>
