<svg width="15" height="15" viewBox="0 0 15 15" fill="none" xmlns="http://www.w3.org/2000/svg">
<path fill-rule="evenodd" clip-rule="evenodd" d="M7.49971 2.5C9.20443 2.5 10.8345 3.39414 12.3536 4.86322C12.8719 5.3644 13.3408 5.89947 13.7535 6.43476C14.0026 6.75778 14.1794 7.01187 14.2762 7.16325L14.4916 7.5L14.2762 7.83675C14.1794 7.98813 14.0026 8.24222 13.7535 8.56524C13.3408 9.10053 12.8719 9.6356 12.3536 10.1368C10.8345 11.6059 9.20443 12.5 7.49971 12.5C5.79499 12.5 4.16491 11.6059 2.64578 10.1368C2.12752 9.6356 1.65865 9.10053 1.2459 8.56524C0.996838 8.24222 0.820006 7.98813 0.723187 7.83675L0.507812 7.5L0.723187 7.16325C0.820006 7.01187 0.996838 6.75778 1.2459 6.43476C1.65865 5.89947 2.12752 5.3644 2.64578 4.86322C4.16491 3.39414 5.79499 2.5 7.49971 2.5ZM12.7636 7.19805C12.3857 6.70795 11.956 6.21763 11.4847 5.76178C10.1763 4.49648 8.81536 3.75 7.49969 3.75C6.18402 3.75 4.82312 4.49648 3.51471 5.76178C3.04334 6.21763 2.61368 6.70795 2.23578 7.19805C2.15416 7.3039 2.07874 7.40489 2.00979 7.5C2.07874 7.59511 2.15416 7.6961 2.23578 7.80195C2.61368 8.29205 3.04334 8.78237 3.51471 9.23822C4.82312 10.5035 6.18402 11.25 7.49969 11.25C8.81536 11.25 10.1763 10.5035 11.4847 9.23822C11.956 8.78237 12.3857 8.29205 12.7636 7.80195C12.8452 7.6961 12.9206 7.59511 12.9896 7.5C12.9206 7.40489 12.8452 7.3039 12.7636 7.19805ZM4.99968 7.5C4.99968 8.88071 6.11897 10 7.49968 10C8.88039 10 9.99968 8.88071 9.99968 7.5C9.99968 6.11929 8.88039 5 7.49968 5C6.11897 5 4.99968 6.11929 4.99968 7.5ZM8.74953 7.5C8.74953 8.19036 8.18989 8.75 7.49953 8.75C6.80918 8.75 6.24953 8.19036 6.24953 7.5C6.24953 6.80964 6.80918 6.25 7.49953 6.25C8.18989 6.25 8.74953 6.80964 8.74953 7.5Z" fill="black"/>
</svg>
