<svg width="20" height="20" viewBox="0 0 20 20" fill="none" xmlns="http://www.w3.org/2000/svg">
<path fill-rule="evenodd" clip-rule="evenodd" d="M15.547 17.4142L17.3946 15.5666L16.7439 13.2025L17.0274 12.5254L19.1668 11.3182V8.70541L17.0335 7.49315L16.7547 6.81727L17.4136 4.452L15.5647 2.60573L13.2004 3.25627L12.5248 2.97302L11.3175 0.833374H8.70469L7.49243 2.96674L6.8167 3.24543L4.45181 2.58571L2.60575 4.43178L3.25639 6.79644L2.97314 7.47199L0.833496 8.67933V11.2914L2.96494 12.5064L3.24393 13.1828L2.58514 15.5477L4.4319 17.3945L6.79656 16.7438L7.47219 17.0271L8.67955 19.1659H11.2917L12.5058 17.0344L13.1821 16.7554L15.547 17.4142ZM15.7107 11.3547L14.9842 13.0898L15.5303 15.0738L15.0567 15.5475L13.0769 14.996L11.341 15.7119L10.3229 17.4992H9.65259L8.643 15.7108L6.90979 14.984L4.92472 15.5302L4.45185 15.0574L5.00337 13.0776L4.28751 11.3418L2.50016 10.323V9.65257L4.28941 8.64296L5.01616 6.90967L4.46996 4.92459L4.94184 4.45271L6.92163 5.005L8.65812 4.28883L9.67458 2.50004H10.3443L11.3539 4.28929L13.0872 5.01604L15.0726 4.46973L15.5467 4.94309L14.9953 6.9225L15.7114 8.65884L17.5002 9.6753V10.345L15.7107 11.3547ZM10.0002 13.3334C8.15921 13.3334 6.66683 11.841 6.66683 10C6.66683 8.15909 8.15921 6.66671 10.0002 6.66671C11.8411 6.66671 13.3335 8.15909 13.3335 10C13.3335 11.841 11.8411 13.3334 10.0002 13.3334ZM11.6668 10C11.6668 10.9205 10.9206 11.6667 10.0002 11.6667C9.07969 11.6667 8.3335 10.9205 8.3335 10C8.3335 9.07957 9.07969 8.33337 10.0002 8.33337C10.9206 8.33337 11.6668 9.07957 11.6668 10Z" fill="#C4C4C4"/>
</svg>
