<svg width="20" height="20" viewBox="0 0 20 20" fill="none" xmlns="http://www.w3.org/2000/svg">
<path fill-rule="evenodd" clip-rule="evenodd" d="M7.49984 0.833344H12.4998C13.4203 0.833344 14.1665 1.57954 14.1665 2.50001V3.33334H16.6665C17.587 3.33334 18.3332 4.07954 18.3332 5.00001V6.66668C18.3332 7.58715 17.587 8.33334 16.6665 8.33334H16.5997L15.8332 17.5C15.8332 18.4205 15.087 19.1667 14.1665 19.1667H5.83319C4.91271 19.1667 4.16652 18.4205 4.1694 17.5692L3.39975 8.33334H3.33317C2.4127 8.33334 1.6665 7.58715 1.6665 6.66668V5.00001C1.6665 4.07954 2.4127 3.33334 3.33317 3.33334H5.83317V2.50001C5.83317 1.57954 6.57936 0.833344 7.49984 0.833344ZM3.33317 5.00001H5.83317H14.1665H16.6665V6.66668H3.33317V5.00001ZM5.07192 8.33334H14.9275L14.1694 17.4308L14.1665 17.5H5.83318L5.07192 8.33334ZM12.4998 2.50001V3.33334H7.49984V2.50001H12.4998ZM6.91057 10.5893L8.08908 9.41075L9.99982 11.3215L11.9106 9.41075L13.0891 10.5893L11.1783 12.5L13.0891 14.4108L11.9106 15.5893L9.99982 13.6785L8.08908 15.5893L6.91057 14.4108L8.82131 12.5L6.91057 10.5893Z" fill="black"/>
</svg>
