<svg width="24" height="24" viewBox="0 0 24 24" fill="none" xmlns="http://www.w3.org/2000/svg">
<path fill-rule="evenodd" clip-rule="evenodd" d="M12 23C5.92487 23 1 18.0751 1 12C1 5.92487 5.92487 1 12 1C18.0751 1 23 5.92487 23 12C23 18.0751 18.0751 23 12 23ZM19.3994 17.1247C20.4085 15.6703 20.9999 13.9043 20.9999 12C20.9999 7.02948 16.9705 3.00005 11.9999 3.00005C7.02936 3.00005 2.99992 7.02948 2.99992 12C2.99992 13.9042 3.59128 15.6703 4.60037 17.1246C5.72263 15.6422 8.35558 15.0035 11.9692 15C9.74462 14.9857 7.99972 13.4119 7.99972 10.0001C7.99972 7.75581 9.57881 6.00005 11.9997 6.00005C14.4139 6.00005 15.9997 7.92163 15.9997 10.2001C15.9997 13.4645 14.2342 14.986 12.0304 15C15.6442 15.0035 18.2772 15.6422 19.3994 17.1247ZM17.9646 18.7398C17.672 17.6873 15.5694 16.9999 11.9999 16.9999C8.43044 16.9999 6.32781 17.6873 6.03519 18.7398C7.62318 20.1462 9.71184 21 11.9999 21C14.288 21 16.3766 20.1462 17.9646 18.7398ZM9.99963 9.99997C9.99963 12.2692 10.8178 13 11.9996 13C13.1773 13 13.9996 12.2984 13.9996 10.2C13.9996 8.95039 13.2153 7.99997 11.9996 7.99997C10.7334 7.99997 9.99963 8.81579 9.99963 9.99997Z" fill="#C4C4C4"/>
</svg>
