<svg width="50" height="50" viewBox="0 0 50 50" fill="none" xmlns="http://www.w3.org/2000/svg">
<path d="M24.9994 0C11.1928 0 0 11.1931 0 24.9997C0 38.8061 11.1928 50 24.9994 50C38.8061 50 49.9997 38.8061 49.9997 24.9997C49.9997 11.1928 38.8061 0 24.9994 0ZM25.0756 36.7942V36.7939H24.9229H14.2441C14.2441 28.9845 21.1029 28.9863 22.6249 26.9443L22.7991 26.0131C20.6607 24.9294 19.1512 22.3167 19.1512 19.261C19.1512 15.2353 21.7699 11.9713 24.9994 11.9713C28.2289 11.9713 30.8476 15.2353 30.8476 19.261C30.8476 22.2907 29.365 24.8871 27.2551 25.9879L27.4534 27.0461C29.1233 28.9891 35.7539 29.1158 35.7539 36.7942H25.0756V36.7942Z" fill="#0070FF"/>
</svg>
