<svg width="35" height="25" viewBox="0 0 35 25" fill="none" xmlns="http://www.w3.org/2000/svg">
<path d="M22.68 13.8C21.8267 13.16 21.1653 12.3707 20.696 11.432C20.2267 10.536 19.992 9.512 19.992 8.36C19.992 6.056 20.7387 4.17867 22.232 2.728C23.7253 1.32 25.5813 0.615998 27.8 0.615998C29.8053 0.615998 31.448 1.23467 32.728 2.472C34.008 3.70933 34.648 5.30933 34.648 7.272C34.648 8.296 34.456 9.27733 34.072 10.216C33.688 11.1547 33.0053 12.3493 32.024 13.8L25.112 24.488H17.496L22.68 13.8ZM5.91197 13.8C5.05864 13.16 4.3973 12.3707 3.92797 11.432C3.45864 10.536 3.22397 9.512 3.22397 8.36C3.22397 6.056 3.97064 4.17866 5.46397 2.728C6.9573 1.32 8.8133 0.615996 11.032 0.615997C13.0373 0.615997 14.68 1.23467 15.96 2.472C17.24 3.70933 17.88 5.30933 17.88 7.272C17.88 8.296 17.688 9.27733 17.304 10.216C16.92 11.1547 16.2373 12.3493 15.256 13.8L8.34397 24.488H0.727966L5.91197 13.8Z" fill="#E6B980"/>
</svg>
