<svg width="35" height="25" viewBox="0 0 35 25" fill="none" xmlns="http://www.w3.org/2000/svg">
<path d="M12.3201 11.2C13.1734 11.84 13.8348 12.6293 14.3041 13.568C14.7734 14.464 15.0081 15.488 15.0081 16.64C15.0081 18.944 14.2614 20.8213 12.7681 22.272C11.2747 23.68 9.41872 24.384 7.20005 24.384C5.19472 24.384 3.55205 23.7653 2.27205 22.528C0.992051 21.2907 0.352051 19.6907 0.352051 17.728C0.352051 16.704 0.544051 15.7227 0.928051 14.784C1.31205 13.8453 1.99472 12.6507 2.97605 11.2L9.88805 0.511993H17.5041L12.3201 11.2ZM29.0881 11.2C29.9414 11.84 30.6028 12.6293 31.0721 13.568C31.5414 14.464 31.7761 15.488 31.7761 16.64C31.7761 18.944 31.0294 20.8213 29.5361 22.272C28.0428 23.68 26.1868 24.384 23.9681 24.384C21.9628 24.384 20.3201 23.7653 19.0401 22.528C17.7601 21.2907 17.1201 19.6907 17.1201 17.728C17.1201 16.704 17.312 15.7227 17.6961 14.784C18.0801 13.8453 18.7628 12.6507 19.7441 11.2L26.6561 0.511993H34.272L29.0881 11.2Z" fill="#E6B980"/>
</svg>
